<?xml version="1.0" encoding="utf-8"?>
<!-- Generator: Adobe Illustrator 20.1.0, SVG Export Plug-In . SVG Version: 6.00 Build 0)  -->
<svg version="1.1" id="Layer_1" xmlns="http://www.w3.org/2000/svg" xmlns:xlink="http://www.w3.org/1999/xlink" x="0px" y="0px"
	 viewBox="0 0 1275.6 189.9" style="enable-background:new 0 0 1275.6 189.9;" xml:space="preserve">
<style type="text/css">
	.st0{fill:#F5F4EC;}
	.st1{fill:none;}
	.st2{fill:#5D5F5E;}
	.st3{fill:#B3B2AB;}
	.st4{fill:#649F90;}
	.st5{fill:#D76239;}
</style>
<line class="st0" x1="1250.4" y1="157.1" x2="1250.4" y2="149.8"/>
<line class="st0" x1="1248.1" y1="40.1" x2="1248.1" y2="32.8"/>
<path class="st1" d="M387.5,45.7h-35.8V144h36.3c27.8,0,49.5-21,49.5-48.9C437.5,66.9,415.5,45.7,387.5,45.7z"/>
<path class="st1" d="M799,40.1h-36.1v68.3H799c26,0,40.9-12.3,40.9-34.5C840,52,825,40.1,799,40.1z"/>
<polygon class="st1" points="865.7,150.2 984.9,150.2 925.3,47 "/>
<path class="st1" d="M228.9,45.4c-27.8,0-50.9,21.9-50.9,49.5c0,27.6,23.1,49.8,50.9,49.8c27.8,0,50.5-22.2,50.5-49.8
	C279.4,67.3,256.7,45.4,228.9,45.4z"/>
<path class="st2" d="M89.7,144.3c-28.1,0-50.7-22.2-50.7-49.6c0-27.6,22.6-49.5,50.7-49.5c13.7,0,27.2,5.9,36.8,15.5l8.5-10.3
	c-11.9-11.2-28.5-18.1-45.5-18.1c-36.1,0-64.9,27.6-64.9,62.4c0,35.2,28.5,63,64.4,63c17.3,0,34-7.3,46.3-18.9l-8.7-9.4
	C116.7,138.6,103.4,144.3,89.7,144.3z"/>
<polygon class="st2" points="509.7,100.5 572.5,100.5 572.5,87.6 509.7,87.6 509.7,45.7 580,45.7 580,32.6 495.5,32.6 495.5,157.1 
	582.3,157.1 582.3,144 509.7,144 "/>
<path class="st2" d="M228.9,32.2c-36.5,0-65.3,27.6-65.3,62.6c0,35,28.8,62.8,65.3,62.8c36.3,0,65.1-27.8,65.1-62.8
	C294,59.8,265.2,32.2,228.9,32.2z M228.9,144.7c-27.8,0-50.9-22.2-50.9-49.8c0-27.6,23.1-49.5,50.9-49.5c27.8,0,50.5,21.9,50.5,49.5
	C279.4,122.4,256.7,144.7,228.9,144.7z"/>
<path class="st2" d="M451.9,94.8c0-35.4-27.8-62.3-64-62.3h-50.3v124.5h49.8C424,157.1,451.9,130.3,451.9,94.8z M388.1,144h-36.3
	V45.7h35.8c27.9,0,50,21.2,50,49.3C437.5,123,415.8,144,388.1,144z"/>
<polygon class="st3" points="1175.3,149.8 1175.3,97.2 1240,97.2 1240,89.7 1175.3,89.7 1175.3,40.1 1248.1,40.1 1248.1,32.8 
	1167.8,32.8 1167.8,157.1 1250.4,157.1 1250.4,149.8 "/>
<path class="st3" d="M1076.4,150c-31.5,0-56.9-24.7-56.9-55.3c0-30.4,25.4-55,56.9-55c14.8,0,28.8,5.7,39.1,15.3l4.4-5.7
	c-11.6-10.3-27-16.7-43.8-16.7c-35.4,0-64.2,27.8-64.2,62.3c0,34.5,28.8,62.4,64.2,62.4c16.5,0,32.4-6.6,43.9-17.3l-4.6-5.2
	C1105.1,144.3,1091.2,150,1076.4,150z"/>
<path class="st3" d="M799.2,32.8h-43.8v124.4h7.5v-41.5h36.3c30.6,0,47.9-15.3,47.9-42C847.1,47.7,829.8,32.8,799.2,32.8z
	 M799,108.4h-36.1V40.1H799c26,0,40.9,11.9,40.9,33.8C840,96.1,825,108.4,799,108.4z"/>
<path class="st3" d="M631.5,61.4c0-13,12.8-21.2,32.6-21.2c10.7,0,23.3,3,32.6,9.1l3.4-6.8c-9.3-6-23-10.1-35.6-10.1
	c-24.6,0-40.9,11.6-40.9,29.5c0,44.8,73.1,24.9,72.8,63.9c0,14.6-13.7,23.8-35,23.8c-14.6,0-30.4-6.4-40.6-16.9l-3.9,6.6
	c10.9,10.7,27.8,18,44.3,18c26,0,43.2-12.5,43.2-31.7C704.6,79.7,631.5,99.3,631.5,61.4z"/>
<polygon class="st4" points="984.9,150.2 996.9,157.1 961.1,95.1 925.3,33.1 925.3,47 "/>
<polygon class="st5" points="925.3,47 925.3,33.1 853.7,157.1 865.7,150.2 "/>
<polygon class="st3" points="996.9,157.1 962.8,98 962.4,97.3 961.1,95.1 956.9,87.8 925.3,33.1 961.1,95.1 "/>
<polygon class="st3" points="984.9,150.2 865.7,150.2 853.7,157.1 996.9,157.1 "/>
</svg>
